<?xml version="1.0" encoding="utf-8"?>
<!-- Generator: Adobe Illustrator 24.3.0, SVG Export Plug-In . SVG Version: 6.00 Build 0)  -->
<svg version="1.1" xmlns="http://www.w3.org/2000/svg" xmlns:xlink="http://www.w3.org/1999/xlink" x="0px" y="0px"
	 viewBox="0 0 256 256" style="enable-background:new 0 0 256 256;" xml:space="preserve">
<style type="text/css">
	.st0{fill:url(#SVGID_1_);}
	.st1{display:none;}
	.st2{display:inline;}
	.st3{fill:url(#SVGID_2_);}
	.st4{fill:url(#SVGID_3_);}
</style>
<g id="Layer_2">
	<linearGradient id="SVGID_1_" gradientUnits="userSpaceOnUse" x1="14.9601" y1="128" x2="241.0399" y2="128">
		<stop  offset="0" style="stop-color:#F72685"/>
		<stop  offset="1" style="stop-color:#7209B7"/>
	</linearGradient>
	<path class="st0" d="M241.04,161.87c-0.06,7.99-0.36,14.43-2.5,20.58c-0.81,2.33-1.89,4.66-3.32,6.65
		c-3.55,4.95-8.72,6.27-14.49,5.61c-4.84-0.56-9-2.93-13.12-5.33c-5.65-3.3-11.18-6.82-16.95-9.9
		c-14.14-7.54-29.36-10.73-45.31-10.44c-5.29,0.1-10.58,0.61-15.84,1.17c-2.49,0.26-4.77,1.43-6.74,3.04
		c-3.18,2.6-4.16,5.93-2.56,9.71c3.14,7.43,6.4,14.8,9.62,22.2c0.75,1.71,1.56,3.4,2.25,5.14c0.74,1.85,1.96,3.27,3.57,4.37
		c1.71,1.16,3.45,2.27,5.21,3.35c3.5,2.16,5.36,5.18,4.85,9.37c-0.5,4.12-3.09,6.63-6.78,8.06c-6.57,2.55-13.18,5.01-19.77,7.52
		c-2,0.76-4.04,1.45-5.99,2.32c-2.86,1.27-5.47,0.79-7.99-0.83c-3.8-2.45-6.4-5.92-8.19-9.98c-4.98-11.3-9.93-22.61-14.79-33.96
		c-1.05-2.46-2.74-3.76-5.28-4.2c-2-0.34-4.01-0.66-5.96-1.19c-3.53-0.95-6.41-2.98-8.72-5.8c-0.63-0.77-1.17-0.89-2.09-0.55
		c-2.78,1.03-5.59,1.95-8.39,2.92c-4.85,1.67-9.65,1.18-14.29-0.66c-9.15-3.63-16.11-9.74-20.11-18.84
		c-2.61-5.94-2.87-12.24-1.83-18.6c0.82-5,2.5-9.65,5.78-13.61c1.9-2.3,4.23-3.99,7-5.12c15.31-6.24,30.3-13.16,44.63-21.45
		c13.48-7.79,26.2-16.6,37.31-27.6c11.6-11.48,20.28-24.75,24.65-40.59c1.55-5.63,2.64-11.38,4.12-17.03
		c0.77-2.96,1.67-5.95,2.97-8.71c3.15-6.75,11.03-12.33,21.46-7.84c6.01,2.58,11.08,6.49,15.8,10.89
		c9.5,8.86,17.3,19.12,24.31,29.99c12.52,19.4,22.09,40.19,28.91,62.24c3.68,11.9,6.42,24.02,7.78,36.42
		C240.68,155.22,240.85,159.31,241.04,161.87z M216.77,154.2c-0.46-10.78-2.36-21.27-5.15-31.6c-4.3-15.89-10.75-30.88-19.08-45.05
		c-6.52-11.08-13.89-21.55-22.9-30.78c-2.5-2.56-5.08-5.07-8.26-6.83c-1.13-0.62-1.57-0.49-1.89,0.74
		c-0.47,1.84-0.89,3.72-1.09,5.61c-0.82,7.96-0.16,15.88,0.95,23.77c2.19,15.66,6.62,30.67,13.26,45
		c7.02,15.14,16.01,28.96,27.75,40.9c3.58,3.65,7.37,7.07,11.89,9.57c2.33,1.29,2.96,1.09,3.39-1.5
		C216.19,160.79,216.41,157.49,216.77,154.2z"/>
</g>
<g id="Layer_3" class="st1">
	<g class="st2">
		<linearGradient id="SVGID_2_" gradientUnits="userSpaceOnUse" x1="73.302" y1="235.9751" x2="218.3525" y2="54.6619">
			<stop  offset="0" style="stop-color:#F72685"/>
			<stop  offset="1" style="stop-color:#7209B7"/>
		</linearGradient>
		<path class="st3" d="M179.96,87.38c-5.25-8.92-11.18-17.35-18.44-24.78c-2.02-2.06-4.09-4.08-6.65-5.49
			c-0.91-0.5-1.27-0.4-1.52,0.6c-0.38,1.48-0.72,2.99-0.87,4.51c-0.66,6.41-0.13,12.79,0.76,19.14
			c1.76,12.61,5.33,24.69,10.68,36.23c5.65,12.19,12.89,23.31,22.34,32.93c2.89,2.94,5.94,5.69,9.57,7.7
			c1.87,1.04,2.38,0.87,2.73-1.2c0.44-2.62,0.62-5.28,0.91-7.92c-0.37-8.68-1.9-17.12-4.15-25.44
			C191.86,110.86,186.67,98.8,179.96,87.38z"/>
		<linearGradient id="SVGID_3_" gradientUnits="userSpaceOnUse" x1="54.3365" y1="220.8026" x2="199.387" y2="39.4895">
			<stop  offset="0" style="stop-color:#F72685"/>
			<stop  offset="1" style="stop-color:#7209B7"/>
		</linearGradient>
		<path class="st4" d="M128.33,0.64C57.82,0.64,0.66,57.8,0.66,128.31s57.16,127.67,127.67,127.67S256,198.82,256,128.31
			S198.84,0.64,128.33,0.64z M217,171.84c-0.65,1.87-1.52,3.75-2.67,5.36c-2.86,3.98-7.02,5.05-11.67,4.52
			c-3.9-0.45-7.25-2.36-10.56-4.29c-4.55-2.66-9-5.49-13.65-7.97c-11.38-6.07-23.64-8.64-36.48-8.4c-4.26,0.08-8.51,0.49-12.75,0.94
			c-2.01,0.21-3.84,1.15-5.43,2.45c-2.56,2.09-3.35,4.78-2.06,7.82c2.53,5.98,5.16,11.92,7.75,17.87c0.6,1.38,1.26,2.74,1.81,4.14
			c0.59,1.49,1.58,2.64,2.87,3.52c1.37,0.93,2.78,1.82,4.2,2.7c2.82,1.74,4.31,4.17,3.9,7.54c-0.4,3.32-2.49,5.34-5.46,6.49
			c-5.29,2.06-10.61,4.04-15.92,6.05c-1.61,0.61-3.25,1.17-4.82,1.87c-2.3,1.02-4.41,0.64-6.43-0.67c-3.06-1.97-5.15-4.76-6.59-8.04
			c-4.01-9.1-7.99-18.21-11.91-27.34c-0.85-1.98-2.2-3.03-4.25-3.38c-1.61-0.28-3.23-0.53-4.8-0.96c-2.84-0.77-5.16-2.4-7.02-4.67
			c-0.51-0.62-0.95-0.71-1.68-0.44c-2.23,0.83-4.5,1.57-6.75,2.35c-3.91,1.34-7.77,0.95-11.51-0.54
			c-7.36-2.92-12.97-7.84-16.19-15.17c-2.1-4.79-2.31-9.86-1.48-14.97c0.66-4.02,2.01-7.77,4.65-10.96c1.53-1.85,3.4-3.22,5.64-4.13
			c12.33-5.02,24.4-10.6,35.93-17.27c10.85-6.27,21.09-13.37,30.04-22.22c9.34-9.24,16.33-19.92,19.85-32.68
			c1.25-4.53,2.13-9.16,3.31-13.71c0.62-2.39,1.35-4.79,2.39-7.02c2.54-5.43,8.88-9.93,17.28-6.31c4.84,2.08,8.92,5.22,12.72,8.77
			c7.65,7.13,13.93,15.39,19.57,24.14c10.08,15.62,17.79,32.36,23.27,50.11c2.96,9.58,5.17,19.34,6.26,29.32
			c0.36,3.27,0.5,6.57,0.64,8.63C218.96,161.7,218.72,166.88,217,171.84z"/>
	</g>
</g>
</svg>
